<svg xmlns="http://www.w3.org/2000/svg" width="12.245" height="21.392" viewBox="0 0 12.245 21.392">
  <g id="build-icon" transform="translate(-1764.398 -46.764)">
    <path id="Trazado_481" data-name="Trazado 481" d="M1764.405,54.99c0-1.971.006-3.942-.007-5.912a.4.4,0,0,1,.351-.471q3.205-.889,6.4-1.814a.371.371,0,0,1,.479.165c1.59,2.16,3.2,4.309,4.782,6.471a1.139,1.139,0,0,1,.212.626c.013,3.929.006,7.859.017,11.789a.4.4,0,0,1-.356.465q-3.224.9-6.438,1.821a.354.354,0,0,1-.455-.158c-1.6-2.178-3.218-4.349-4.818-6.531a.974.974,0,0,1-.164-.539C1764.4,58.931,1764.405,56.961,1764.405,54.99Zm9.738,8.89,1.092-.306v2.655a6.252,6.252,0,0,1,.735-.2c.285-.04.358-.176.357-.461q-.014-5.669-.007-11.336c0-.12-.013-.24-.021-.393-2.118.6-4.189,1.2-6.265,1.774a.416.416,0,0,0-.368.489q.015,5.651.006,11.3v.392c.138-.031.227-.045.313-.07,1.245-.355,2.486-.73,3.738-1.057.351-.091.44-.239.428-.585C1774.124,65.352,1774.143,64.622,1774.143,63.88Zm-6.676-9.437-.091.038c0,.677.017,1.354-.007,2.03a1.33,1.33,0,0,0,.311.95c.306.375.58.776.868,1.166l.084-.035c0-.539-.042-1.082.01-1.615a2.154,2.154,0,0,0-.582-1.764C1767.842,54.975,1767.664,54.7,1767.467,54.443Z" fill="#595959"/>
    <path id="Trazado_482" data-name="Trazado 482" d="M1775.211,55.465v2.671l-3.167.909c0-.863,0-1.692.006-2.521a.259.259,0,0,1,.148-.189C1773.185,56.043,1774.174,55.762,1775.211,55.465Z" fill="#595959"/>
    <path id="Trazado_483" data-name="Trazado 483" d="M1770.847,63.65c0-.86-.005-1.67.006-2.479a.3.3,0,0,1,.145-.229c.661-.193,1.328-.367,2.03-.557,0,.858,0,1.678-.007,2.5a.286.286,0,0,1-.163.207C1772.208,63.281,1771.553,63.456,1770.847,63.65Z" fill="#595959"/>
  </g>
</svg>
