<svg xmlns="http://www.w3.org/2000/svg" width="50.079" height="50.074" viewBox="0 0 50.079 50.074">
  <g id="exteriores" transform="translate(-940.247 -3499.484)">
    <g id="Grupo_146" data-name="Grupo 146">
      <path id="Trazado_508" data-name="Trazado 508" d="M979.958,3534.79a1.467,1.467,0,0,0-1.466,1.468v1.466h-17.6v-1.466a1.469,1.469,0,0,0-2.937,0v5.87a1.469,1.469,0,0,0,2.937,0v-1.47h17.6v1.47a1.466,1.466,0,0,0,2.933,0v-5.87A1.468,1.468,0,0,0,979.958,3534.79Z" fill="#595959" fill-rule="evenodd"/>
      <path id="Trazado_509" data-name="Trazado 509" d="M957.524,3521.153l.427-.429v9.665a1.464,1.464,0,0,0,1.465,1.465h20.542a1.466,1.466,0,0,0,1.467-1.465v-9.665l.428.429a1.467,1.467,0,0,0,2.082-2.068l-13.205-13.3a1.472,1.472,0,0,0-2.083,0l-13.2,13.3a1.467,1.467,0,0,0,2.08,2.068Zm13.633,7.77H968.22v-5.87h2.937v5.87Zm-1.468-20.024,8.8,8.868v11.156h-4.4v-7.336a1.468,1.468,0,0,0-1.467-1.468h-5.87a1.467,1.467,0,0,0-1.466,1.468v7.336h-4.4v-11.156Z" fill="#595959" fill-rule="evenodd"/>
      <path id="Trazado_510" data-name="Trazado 510" d="M947.682,3528.923a1.465,1.465,0,0,0,0,2.931h5.87a1.465,1.465,0,1,0,0-2.931h-1.466v-20.638h1.466a1.465,1.465,0,1,0,0-2.931h-5.87a1.465,1.465,0,0,0,0,2.931h1.468v20.638Z" fill="#595959" fill-rule="evenodd"/>
      <path id="Trazado_511" data-name="Trazado 511" d="M988.86,3499.484H941.717a1.469,1.469,0,0,0-1.47,1.466v47.142a1.469,1.469,0,0,0,1.47,1.466H988.86a1.465,1.465,0,0,0,1.466-1.466V3500.95a1.465,1.465,0,0,0-1.466-1.466Zm-1.468,47.14H943.183v-44.207h44.209Z" fill="#595959" fill-rule="evenodd"/>
    </g>
  </g>
</svg>
