<svg xmlns="http://www.w3.org/2000/svg" width="10.025" height="20.061" viewBox="0 0 10.025 20.061">
  <path id="facebook-icon" d="M1739.95,56.889c-.583,0-1.121-.01-1.658,0-.352.009-.51-.141-.508-.491.006-.68,0-1.359,0-2.039,0-.387.21-.551.572-.554.483,0,.966,0,1.509,0,0-.27,0-.515,0-.759.016-.886,0-1.775.061-2.659.136-1.9,1.172-2.848,2.956-3.426a6.478,6.478,0,0,1,3.963.227c.066.02.128.053.193.077.863.325.863.325.649,1.215-.164.683-.329,1.366-.5,2.079-.312-.038-.6-.066-.885-.109a1.72,1.72,0,0,0-2.18,1.712c-.037.524-.006,1.052-.006,1.643h1.577c.374,0,.749.006,1.123,0a.468.468,0,0,1,.54.53c0,.735,0,1.47,0,2.205,0,.327-.16.436-.466.435-.873,0-1.746.007-2.619.013-.011,0-.022.015-.062.047-.006.067-.019.16-.02.253q-.042,4.41-.081,8.82c-.005.579-.1.691-.668.692-1.015,0-2.032,0-3.047-.033-.123,0-.3-.2-.345-.337a2.585,2.585,0,0,1-.1-.776q-.009-4.1,0-8.2Z" transform="translate(-1737.784 -46.739)" fill="#595959"/>
</svg>
