<svg xmlns="http://www.w3.org/2000/svg" width="50" height="45.714" viewBox="0 0 50 45.714">
  <g id="interiores" transform="translate(-5705 -1710.286)">
    <path id="Trazado_136" data-name="Trazado 136" d="M5755,1756h-50v-45.714h50Zm-21.508-26.531v17.393a8.1,8.1,0,0,1,5.013,2.419,42.864,42.864,0,0,1,2.953,4.537H5752.6v-41.333h-19.1v14.867h1.137q4.609,0,9.219,0c.846,0,1.639.111,1.642,1.08,0,1.005-.843,1.039-1.659,1.038h-10.348Zm-26.086,5.3v19.018h3.746c0-3.885,0-7.675,0-11.464,0-1.449.219-1.652,1.794-1.656,3.369-.007,6.739,0,10.108,0,2.844,0,2.844,0,2.844,2.637v10.509h5.137V1737.39c-2.013,0-3.933.006-5.854,0-1.488-.006-1.9-.447-1.707-1.816a7.959,7.959,0,0,1,3.175-5.4c.23-.176.445-.369.743-.618h-3.931c0,1.228,0,2.377,0,3.526,0,1.5-.207,1.694-1.858,1.7q-6.5.006-13,0Zm9.393-22.306c0,2.6.019,5.127,0,7.658-.029,3.118-2.576,5.414-5.987,5.43-1.13.005-2.26,0-3.423,0v1.728h23.67v-7.534c-2.029,0-3.984.01-5.938,0-1.4-.01-1.81-.419-1.654-1.682a7.79,7.79,0,0,1,2.346-4.82c.233-.225.452-.462.759-.777Zm2.87,41.324h3.875v-10.939h-10.018V1753.8h3.858c0-1.776-.02-3.466.008-5.155.016-.9.766-1.495,1.46-1.113a1.775,1.775,0,0,1,.781,1.28C5719.724,1750.459,5719.669,1752.114,5719.669,1753.791Zm-12.258-41.322v11.007c1.207,0,2.315.015,3.422,0a3.447,3.447,0,0,0,3.643-3.043c.115-2.627.03-5.261.03-7.961Zm-.036,20.121h13.734v-3.054h-13.734Zm26.132,16.521v4.775c1.42,0,2.78,0,4.139,0,.284,0,.568-.037.849-.057C5738.393,1751.633,5736.144,1749.5,5733.507,1749.111Zm-2.426-18.475a5.709,5.709,0,0,0-5.09,4.572h5.09Zm-5.134-13.1h5.183v-4.581A5.922,5.922,0,0,0,5725.947,1717.535Z" fill="#595959"/>
    <path id="Trazado_137" data-name="Trazado 137" d="M5742.9,1725.938a6.51,6.51,0,0,1-6.792-6.187c-.021-3.388,3.052-6.209,6.77-6.215a6.539,6.539,0,0,1,6.794,6.3C5749.659,1723.166,5746.594,1725.928,5742.9,1725.938Zm.022-2.089a4.123,4.123,0,1,0-4.522-4.156A4.406,4.406,0,0,0,5742.919,1723.849Z" fill="#595959"/>
    <path id="Trazado_138" data-name="Trazado 138" d="M5748.066,1729.62c-.3-.379-.87-.779-.838-1.133a1.531,1.531,0,0,1,.973-1.072.936.936,0,0,1,1.191.99c-.041.419-.524.8-.809,1.2Z" fill="#595959"/>
    <path id="Trazado_139" data-name="Trazado 139" d="M5717.225,1744.661c.438-.242.915-.716,1.3-.661a1.557,1.557,0,0,1,1.081.956c.136.651-.478,1.113-1.157,1.014-.453-.066-.833-.544-1.246-.838Z" fill="#595959"/>
  </g>
</svg>
