<svg xmlns="http://www.w3.org/2000/svg" width="38.542" height="19.564" viewBox="0 0 38.542 19.564">
  <g id="mail-icon" transform="translate(-1583.839 -5174.872)">
    <path id="Trazado_512" data-name="Trazado 512" d="M1622.381,5193.837a1.134,1.134,0,0,1-1.146.6q-12.832-.014-25.665-.007c-.926,0-1.195-.266-1.195-1.18q0-2.013,0-4.027v-.449h-.436c-1.23,0-2.459,0-3.688,0-.618,0-.978-.291-1.01-.78a.786.786,0,0,1,.668-.859,2.834,2.834,0,0,1,.486-.037c1.179,0,2.358,0,3.537,0h.443c0-.313,0-.586,0-.859.009-.616.334-.991.848-.984.5.006.816.376.818.97.005,1.606,0,3.212,0,4.817v.323l7.32-7.313-7.32-6.477c0,.278,0,.449,0,.62,0,.89.009,1.781-.008,2.671a.82.82,0,0,1-.8.842.855.855,0,0,1-.854-.786,2.312,2.312,0,0,1-.01-.3q0-2.353,0-4.7c0-.723.307-1.037,1.023-1.037q12.947,0,25.891,0a1.026,1.026,0,0,1,1.092.67Zm-24.938-17.261,10.944,9.69c.161-.135.3-.247.429-.36q4.392-3.724,8.784-7.448a2,2,0,0,1,.4-.277.811.811,0,0,1,1.152.679.957.957,0,0,1-.426.832q-1.651,1.4-3.3,2.8l-1.946,1.655q3.647,3.647,7.217,7.217v-14.787Zm14.593,8.8c-.059.049-.175.143-.288.239-.9.762-1.8,1.529-2.7,2.287a.875.875,0,0,1-1.338,0c-.125-.1-.245-.216-.367-.324l-2.554-2.258-7.411,7.411h22.013Z" fill="#454545"/>
    <path id="Trazado_513" data-name="Trazado 513" d="M1591.732,5184.409q-3.365,0-6.73,0a2.482,2.482,0,0,1-.558-.057.811.811,0,0,1,.047-1.58,2.324,2.324,0,0,1,.447-.041q6.788,0,13.575,0c.647,0,.967.2,1.071.661a.784.784,0,0,1-.6.966,2.33,2.33,0,0,1-.521.052Q1595.1,5184.413,1591.732,5184.409Z" fill="#454545"/>
    <path id="Trazado_514" data-name="Trazado 514" d="M1589.309,5179.8h-2.972a.944.944,0,0,1-.909-.411.81.81,0,0,1,.471-1.2,2.813,2.813,0,0,1,.67-.061q2.782-.006,5.567,0a2.453,2.453,0,0,1,.521.05.809.809,0,0,1-.04,1.592,3.409,3.409,0,0,1-.524.034Q1590.7,5179.8,1589.309,5179.8Z" fill="#454545"/>
    <path id="Trazado_515" data-name="Trazado 515" d="M1587.749,5192.3c-.927,0-1.855,0-2.783,0a2.386,2.386,0,0,1-.521-.05.815.815,0,0,1-.029-1.568,1.914,1.914,0,0,1,.483-.06q2.838-.006,5.678,0a1.893,1.893,0,0,1,.409.048.811.811,0,0,1-.007,1.587,2.516,2.516,0,0,1-.485.044C1589.579,5192.305,1588.664,5192.3,1587.749,5192.3Z" fill="#454545"/>
  </g>
</svg>
