<svg xmlns="http://www.w3.org/2000/svg" width="12.993" height="19.814" viewBox="0 0 12.993 19.814">
  <g id="phone-icon" transform="translate(-1533.485 -46.99)">
    <path id="Trazado_477" data-name="Trazado 477" d="M1543.979,66.754a3.768,3.768,0,0,1-2.171-.338,9.961,9.961,0,0,1-4.527-3.645,19.091,19.091,0,0,1-3.743-9.3,6.636,6.636,0,0,1,1.165-4.859,3.26,3.26,0,0,1,1.433-1.147c.766,1.866,1.519,3.7,2.279,5.548a1.118,1.118,0,0,0-.615,1.291,14.411,14.411,0,0,0,2.614,6.133,5.2,5.2,0,0,0,1.174.832.79.79,0,0,1,.28.269C1542.572,63.257,1543.265,64.982,1543.979,66.754Z" fill="#595959"/>
    <path id="Trazado_478" data-name="Trazado 478" d="M1536.97,47.262c.376-.1.7-.2,1.033-.254a1,1,0,0,1,1.152.534c.562,1.325,1.116,2.653,1.649,3.986.2.492-.07.875-.678,1.062-.26.079-.53.14-.857.226C1538.506,50.974,1537.748,49.142,1536.97,47.262Z" fill="#595959"/>
    <path id="Trazado_479" data-name="Trazado 479" d="M1542.626,61.072c.334-.091.592-.173.858-.231a1.057,1.057,0,0,1,1.336.529q.831,1.943,1.605,3.9c.17.43-.071.794-.6.98-.283.1-.584.166-.943.265C1544.128,64.7,1543.387,62.91,1542.626,61.072Z" fill="#595959"/>
  </g>
</svg>
