<svg xmlns="http://www.w3.org/2000/svg" width="19.473" height="19.461" viewBox="0 0 19.473 19.461">
  <path id="whatsapp-icon" d="M1498.181,67c.15-.55.293-1.07.436-1.591q.413-1.506.828-3.013a.32.32,0,0,0-.039-.266,9.284,9.284,0,0,1-1.241-3.676,9.749,9.749,0,0,1,7.7-10.708,9.717,9.717,0,0,1,9.923,3.917A9.727,9.727,0,0,1,1503.157,65.8a.354.354,0,0,0-.284-.029l-4.474,1.177Zm6.564-14.263a1.025,1.025,0,0,0-.849.258,2.739,2.739,0,0,0-.783,2.778,5.547,5.547,0,0,0,.912,1.815,11.6,11.6,0,0,0,2.46,2.659,8.294,8.294,0,0,0,2.589,1.274,3.837,3.837,0,0,0,1.856.261,2.05,2.05,0,0,0,1.884-2.042.4.4,0,0,0-.251-.413c-.372-.173-.736-.363-1.107-.539-.285-.135-.571-.269-.865-.384-.228-.09-.313-.047-.465.142q-.381.476-.773.941a.323.323,0,0,1-.43.1,6.589,6.589,0,0,1-3.325-2.832c-.153-.255-.139-.35.067-.569a2.456,2.456,0,0,0,.588-.809.546.546,0,0,0,.016-.358c-.242-.62-.505-1.232-.76-1.848a.6.6,0,0,0-.644-.433C1504.826,52.738,1504.785,52.735,1504.745,52.735Z" transform="translate(-1498.097 -47.538)" fill="#595959"/>
</svg>
