<svg xmlns="http://www.w3.org/2000/svg" width="44.207" height="44.203" viewBox="0 0 44.207 44.203">
  <path id="edificio" d="M1429.332,3513.306h-9.07v-10.362h1.3a1.295,1.295,0,0,0,0-2.589h-23.4a1.295,1.295,0,0,0,0,2.589h1.3v5.182h-11.741a1.3,1.3,0,0,0-1.3,1.294v33.844a1.3,1.3,0,0,0,1.3,1.294h41.615a1.293,1.293,0,0,0,1.294-1.294V3514.6a1.294,1.294,0,0,0-1.294-1.3Zm-3.888,12.951h2.592v2.589h-2.592v-2.589Zm0-2.592v-2.588h2.592v2.588Zm0,7.771h2.592v2.592h-2.592v-2.592Zm2.592-12.951h-2.592v-2.59h2.592v2.59Zm-20.807,7.772v-2.592h5.18v2.592Zm0-12.951h5.18v2.589h-5.18v-2.589Zm0,5.179h5.18v2.592h-5.18v-2.592Zm5.18-7.771h-5.18v-2.588h5.18v2.588Zm0-5.177h-5.18v-2.593h5.18v2.593Zm-23.4,28.491v-2.592h2.589v2.592Zm2.589-7.771v2.589h-2.589v-2.589Zm-2.589-2.592v-2.588h2.589v2.588Zm2.589-5.18h-2.589v-2.59h2.589v2.59Zm0-7.771v2.592h-2.589v-2.592Zm-2.589,25.9h3.884a1.3,1.3,0,0,0,1.295-1.3v-24.608h5.268v31.256h-10.447v-5.352Zm13.036-33.674h2.592v24.609a1.293,1.293,0,0,0,1.294,1.293h7.771a1.293,1.293,0,0,0,1.294-1.293v-24.609h2.677v39.026H1415v-9.24a1.294,1.294,0,0,0-1.294-1.294h-7.771a1.293,1.293,0,0,0-1.294,1.294v9.24h-2.592v-39.026Zm10.362,39.026h-5.18v-7.942h5.18v7.942Zm7.853,0V3515.9h2.593v19.427a1.3,1.3,0,0,0,1.3,1.3h3.885v5.352Z" transform="translate(-1386.419 -3500.355)" fill="#595959" fill-rule="evenodd"/>
</svg>
