<svg xmlns="http://www.w3.org/2000/svg" width="18.819" height="18.827" viewBox="0 0 18.819 18.827">
  <g id="instagram-icon" transform="translate(-1791.181 -49.135)">
    <path id="Trazado_484" data-name="Trazado 484" d="M1804.924,49.135c.314.048.631.081.942.145a5.054,5.054,0,0,1,4.015,4.194,10.8,10.8,0,0,1,.111,1.609c.012,2.462.008,4.924,0,7.386a5.789,5.789,0,0,1-.67,2.827,4.945,4.945,0,0,1-3.465,2.512,9.538,9.538,0,0,1-2.065.145c-2.42,0-4.839.024-7.258-.008a5.146,5.146,0,0,1-4.67-2.647,5.24,5.24,0,0,1-.682-2.657c-.012-2.719,0-5.438,0-8.157a5.242,5.242,0,0,1,.841-3.013,4.971,4.971,0,0,1,4.112-2.3l.989-.04h1.618a.387.387,0,0,0,.088.02q.827.008,1.653.011a.326.326,0,0,0,.1-.031Zm-4.273,1.757c-1.078,0-2.156-.009-3.234,0a11.594,11.594,0,0,0-1.647.089A3.108,3.108,0,0,0,1793.4,52.6a4.269,4.269,0,0,0-.485,2.1c0,2.279-.006,4.558.005,6.836a11.508,11.508,0,0,0,.1,1.848,3.085,3.085,0,0,0,2.476,2.658,7.411,7.411,0,0,0,1.769.166c1.917,0,3.834.009,5.751,0a19.494,19.494,0,0,0,2.164-.074,3.215,3.215,0,0,0,2.582-1.631,4.408,4.408,0,0,0,.531-2.1c.024-.9.032-1.8.031-2.7,0-1.807,0-3.614-.035-5.42a3.429,3.429,0,0,0-.717-2.048,3.514,3.514,0,0,0-2.941-1.35C1803.31,50.887,1801.98,50.892,1800.651,50.892Z" fill="#595959"/>
    <path id="Trazado_485" data-name="Trazado 485" d="M1800.587,49.135a.326.326,0,0,1-.1.031q-.827,0-1.653-.011a.387.387,0,0,1-.088-.02Z" fill="#595959"/>
    <path id="Trazado_486" data-name="Trazado 486" d="M1795.73,58.5a4.855,4.855,0,1,1,4.827,4.864A4.855,4.855,0,0,1,1795.73,58.5Zm4.836,3.117a3.111,3.111,0,1,0-3.088-3.147A3.132,3.132,0,0,0,1800.566,61.617Z" fill="#595959"/>
    <path id="Trazado_487" data-name="Trazado 487" d="M1806.729,53.549a1.1,1.1,0,1,1-1.065-1.107A1.095,1.095,0,0,1,1806.729,53.549Z" fill="#595959"/>
  </g>
</svg>
