<svg xmlns="http://www.w3.org/2000/svg" width="52.49" height="52.384" viewBox="0 0 52.49 52.384">
  <path id="Interiores" d="M1405.128,3299.174a1.537,1.537,0,0,0-1.541,1.537v5.826l-17.506,10.006a1.564,1.564,0,0,0-.945,1.431v20.4l-5.4,2.678a1.539,1.539,0,0,0,1.365,2.759l5.7-2.83,17.535,10.462a1.262,1.262,0,0,0,.237.112h1.1a1.261,1.261,0,0,0,.237-.112l17.541-10.462,5.7,2.83a1.539,1.539,0,0,0,1.365-2.759l-5.4-2.678v-20.4a1.572,1.572,0,0,0-.944-1.431l-17.509-10.006v-5.826a1.537,1.537,0,0,0-1.537-1.537Zm-7.851,34.887a1.541,1.541,0,0,0-2.063-.692l-7,3.479V3320.6l15.377,8.787v18.032l-13.51-8.064,6.5-3.228a1.543,1.543,0,0,0,.7-2.065Zm17.76-.692a1.538,1.538,0,1,0-1.366,2.757l6.5,3.228-13.509,8.064v-18.032l15.377-8.787v16.249l-7.005-3.479Zm5.42-15.408-15.329,8.761-15.332-8.761,13.791-7.881v9.185a1.539,1.539,0,0,0,3.078,0v-9.185Z" transform="translate(-1378.881 -3299.174)" fill="#595959" fill-rule="evenodd"/>
</svg>
