<svg xmlns="http://www.w3.org/2000/svg" width="52.593" height="48.25" viewBox="0 0 52.593 48.25">
  <g id="planificacion" transform="translate(-939.211 -3305.308)">
    <g id="Grupo_144" data-name="Grupo 144">
      <path id="Trazado_499" data-name="Trazado 499" d="M974.065,3326.083l-8.112-5.41,2.475-4.949a1.541,1.541,0,0,0-2.468-1.777l-9.246,9.244a1.545,1.545,0,0,0,.235,2.374l8.113,5.408-2.476,4.948a1.543,1.543,0,0,0,2.473,1.777l9.244-9.244a1.545,1.545,0,0,0,.44-1.24,1.509,1.509,0,0,0-.678-1.131Zm-5.573,3.82a1.539,1.539,0,0,0-.589-.739l-7.681-5.122,2.3-2.3a1.552,1.552,0,0,0,.588.742l7.683,5.12Z" fill="#595959" fill-rule="evenodd"/>
      <path id="Trazado_500" data-name="Trazado 500" d="M990.264,3322.74h-3.186a1.542,1.542,0,0,0,0,3.084h3.186a1.542,1.542,0,0,0,0-3.084Z" fill="#595959" fill-rule="evenodd"/>
      <path id="Trazado_501" data-name="Trazado 501" d="M939.211,3324.28a1.543,1.543,0,0,0,1.539,1.544h3.186a1.542,1.542,0,0,0,0-3.084H940.75A1.542,1.542,0,0,0,939.211,3324.28Z" fill="#595959" fill-rule="evenodd"/>
      <path id="Trazado_502" data-name="Trazado 502" d="M984.029,3305.76a1.536,1.536,0,0,0-2.177,0l-2.181,2.18a1.541,1.541,0,0,0,2.181,2.179l2.177-2.179A1.54,1.54,0,0,0,984.029,3305.76Z" fill="#595959" fill-rule="evenodd"/>
      <path id="Trazado_503" data-name="Trazado 503" d="M946.985,3342.8a1.544,1.544,0,0,0,2.179,0l2.18-2.177a1.542,1.542,0,0,0-2.18-2.182l-2.179,2.182A1.542,1.542,0,0,0,946.985,3342.8Z" fill="#595959" fill-rule="evenodd"/>
      <path id="Trazado_504" data-name="Trazado 504" d="M949.164,3305.76a1.541,1.541,0,0,0-2.179,2.18l2.179,2.179a1.541,1.541,0,0,0,2.18-2.179Z" fill="#595959" fill-rule="evenodd"/>
      <path id="Trazado_505" data-name="Trazado 505" d="M981.852,3338.446a1.543,1.543,0,0,0-2.181,2.182l2.181,2.177a1.539,1.539,0,0,0,2.177-2.177Z" fill="#595959" fill-rule="evenodd"/>
      <path id="Trazado_506" data-name="Trazado 506" d="M961.871,3307.713a16.942,16.942,0,0,0-6.1,30.426,5.123,5.123,0,0,1,2.031,4.236v.4a4.622,4.622,0,0,0,3.078,4.353v1.806a4.624,4.624,0,0,0,9.247,0v-1.806a4.618,4.618,0,0,0,3.081-4.353v-.489a5.626,5.626,0,0,1,2.43-4.436,16.948,16.948,0,0,0-13.771-30.138Zm3.639,42.761a1.54,1.54,0,0,1-1.542-1.539V3347.4h3.081v1.539a1.541,1.541,0,0,1-1.539,1.539Zm8.289-15.094a8.66,8.66,0,0,0-3.668,6.907v.489a1.545,1.545,0,0,1-1.543,1.538h-6.162a1.545,1.545,0,0,1-1.542-1.538v-.4a8.2,8.2,0,0,0-3.337-6.758,13.865,13.865,0,1,1,16.252-.237Z" fill="#595959" fill-rule="evenodd"/>
    </g>
  </g>
</svg>
